<svg width="129" height="25" viewBox="0 0 129 25" fill="none" xmlns="http://www.w3.org/2000/svg">
<path d="M107.619 24.4984L115.709 0.49836H120.911L129.001 24.4984H125.25L117.8 2.59836H118.733L111.37 24.4984H107.619ZM111.819 19.0817V15.815H124.818V19.0817H111.819Z" fill="black"/>
<path d="M95.8784 24.4984L87.7891 0.49836H91.5399L98.4366 20.9817L105.42 0.49836H109.171L101.081 24.4984H95.8784Z" fill="black"/>
<path d="M75.8824 25C73.3934 25 71.2731 24.4778 69.5215 23.4333C67.77 22.3778 66.4275 20.9111 65.4941 19.0333C64.5723 17.1556 64.1113 14.9778 64.1113 12.5C64.1113 10.0222 64.5723 7.84444 65.4941 5.96667C66.4275 4.08889 67.77 2.62778 69.5215 1.58333C71.2731 0.527777 73.3934 0 75.8824 0C78.3599 0 80.4745 0.527777 82.226 1.58333C83.9891 2.62778 85.3316 4.08889 86.2534 5.96667C87.1753 7.84444 87.6362 10.0222 87.6362 12.5C87.6362 14.9778 87.1753 17.1556 86.2534 19.0333C85.3316 20.9111 83.9891 22.3778 82.226 23.4333C80.4745 24.4778 78.3599 25 75.8824 25ZM75.8824 21.6833C77.6455 21.7056 79.109 21.3333 80.2728 20.5667C81.4482 19.7889 82.3297 18.7111 82.9174 17.3333C83.5051 15.9444 83.799 14.3333 83.799 12.5C83.799 10.6667 83.5051 9.06667 82.9174 7.7C82.3297 6.32222 81.4482 5.25 80.2728 4.48333C79.109 3.71667 77.6455 3.32778 75.8824 3.31667C74.1194 3.29444 72.6501 3.66667 71.4747 4.43333C70.3109 5.2 69.4351 6.27778 68.8474 7.66667C68.2597 9.05556 67.9601 10.6667 67.9486 12.5C67.9371 14.3333 68.2252 15.9389 68.8129 17.3167C69.4005 18.6833 70.2821 19.75 71.4575 20.5167C72.6444 21.2833 74.1194 21.6722 75.8824 21.6833Z" fill="black"/>
<path d="M42.3867 24.4984L50.8737 12.3484L42.6114 0.49836H47.0364L53.1034 9.39836L59.1359 0.49836H63.5781L53.1034 15.5249L54.5143 18.2693L56.5087 15.3847L63.7856 24.4984H59.5003L54.5143 18.2693L53.1034 15.5249L46.829 24.4984H42.3867Z" fill="black"/>
<path d="M24.4082 24.4984V0.49836H40.3104V3.78169H28.0208V10.515H38.2362V13.7984H28.0208V21.215H40.3104V24.4984H24.4082Z" fill="black"/>
<path d="M0 24.4984V0.49836H3.66442L15.9195 18.3317V0.49836H19.5839V24.4984H15.9195L3.66442 6.64836V24.4984H0Z" fill="black"/>
</svg>
